<mxfile host="app.diagrams.net" modified="2024-01-11T09:08:55.171Z" agent="Mozilla/5.0 (Macintosh; Intel Mac OS X 10_15_7) AppleWebKit/537.36 (KHTML, like Gecko) Chrome/120.0.0.0 Safari/537.36" version="22.1.18" etag="jhJ_BkoVzR7zVAaSl1Ch" type="github">
  <diagram name="第 1 页" id="2Fe4VwH8d8XT4GJ6tFrV">
    <mxGraphModel>
      <root>
        <mxCell id="0" />
        <mxCell id="1" parent="0" />
      </root>
    </mxGraphModel>
  </diagram>
</mxfile>
